<?xml version="1.0" standalone="no"?><!DOCTYPE svg PUBLIC "-//W3C//DTD SVG 1.1//EN" "http://www.w3.org/Graphics/SVG/1.1/DTD/svg11.dtd"><svg t="1657245205701" class="icon" viewBox="0 0 1024 1024" version="1.1" xmlns="http://www.w3.org/2000/svg" p-id="11462" xmlns:xlink="http://www.w3.org/1999/xlink" width="220" height="220"><defs><style type="text/css">@font-face { font-family: feedback-iconfont; src: url("//at.alicdn.com/t/font_1031158_u69w8yhxdu.woff2?t=1630033759944") format("woff2"), url("//at.alicdn.com/t/font_1031158_u69w8yhxdu.woff?t=1630033759944") format("woff"), url("//at.alicdn.com/t/font_1031158_u69w8yhxdu.ttf?t=1630033759944") format("truetype"); }
</style></defs><path d="M683.1 328.1c16 16 16 41.9 0 57.9L375.8 693.3c-16 16-41.9 16-57.9 0s-16-41.9 0-57.9l307.2-307.2c16-16.1 42-16.1 58-0.1z" fill="#ffffff" p-id="11463"></path><path d="M683.1 693.3c-16 16-41.9 16-57.9 0L317.9 386.1c-16-16-16-41.9 0-57.9s41.9-16 57.9 0L683 635.4c16 16 16 41.9 0.1 57.9z" fill="#ffffff" p-id="11464"></path><path d="M108.5 687.4m-40.9 0a40.9 40.9 0 1 0 81.8 0 40.9 40.9 0 1 0-81.8 0Z" fill="#ffffff" p-id="11465"></path><path d="M253.6 862.6m-40.9 0a40.9 40.9 0 1 0 81.8 0 40.9 40.9 0 1 0-81.8 0Z" fill="#ffffff" p-id="11466"></path><path d="M499.2 42.6C239.9 42.6 29.8 252.7 29.8 512c0 69 14.9 134.6 41.7 193.6l74.2-35.4C124.1 621.8 112 568.3 112 512c0-213.8 173.3-387.2 387.2-387.2S886.3 298.1 886.3 512 713 899.1 499.2 899.1c-81.9 0-157.9-25.4-220.4-68.8l-51.2 57.2c1.5 0.7 2.5 2.1 2.5 3.6s0.3 3.2-1.2 3.9c76.7 54.5 169.2 86.2 270.4 86.2 259.2 0 469.4-210.1 469.4-469.4S758.4 42.6 499.2 42.6z" fill="#ffffff" p-id="11467"></path></svg>