<?xml version="1.0" standalone="no"?><!DOCTYPE svg PUBLIC "-//W3C//DTD SVG 1.1//EN" "http://www.w3.org/Graphics/SVG/1.1/DTD/svg11.dtd"><svg t="1657245160367" class="icon" viewBox="0 0 1024 1024" version="1.1" xmlns="http://www.w3.org/2000/svg" p-id="7143" xmlns:xlink="http://www.w3.org/1999/xlink" width="220" height="220"><defs><style type="text/css">@font-face { font-family: feedback-iconfont; src: url("//at.alicdn.com/t/font_1031158_u69w8yhxdu.woff2?t=1630033759944") format("woff2"), url("//at.alicdn.com/t/font_1031158_u69w8yhxdu.woff?t=1630033759944") format("woff"), url("//at.alicdn.com/t/font_1031158_u69w8yhxdu.ttf?t=1630033759944") format("truetype"); }
</style></defs><path d="M512 113.757091c61.858909 0 120.366545 14.103273 172.590545 39.284364a28.439273 28.439273 0 1 1-24.576 51.2h-0.09309a341.317818 341.317818 0 1 0 190.882909 265.867636 28.439273 28.439273 0 0 1 55.668363-11.170909h0.232728A398.242909 398.242909 0 1 1 512 113.757091z m384.930909 119.063273l8.192 8.238545c7.168 7.168 6.656 18.525091-0.837818 26.065455l-359.237818 358.679272a29.044364 29.044364 0 0 1-41.053091-0.791272l-156.578909-156.392728a19.456 19.456 0 0 1-2.001455-25.972363l14.615273-18.478546a19.083636 19.083636 0 0 1 25.134545-4.189091l126.696728 84.573091c6.702545 4.468364 18.152727 3.863273 24.436363-1.163636l334.661818-271.546182a20.014545 20.014545 0 0 1 25.925819 0.977455z" fill="#ffffff" p-id="7144"></path></svg>