<?xml version="1.0" standalone="no"?><!DOCTYPE svg PUBLIC "-//W3C//DTD SVG 1.1//EN" "http://www.w3.org/Graphics/SVG/1.1/DTD/svg11.dtd"><svg t="1657245185553" class="icon" viewBox="0 0 1024 1024" version="1.1" xmlns="http://www.w3.org/2000/svg" p-id="8921" xmlns:xlink="http://www.w3.org/1999/xlink" width="220" height="220"><defs><style type="text/css">@font-face { font-family: feedback-iconfont; src: url("//at.alicdn.com/t/font_1031158_u69w8yhxdu.woff2?t=1630033759944") format("woff2"), url("//at.alicdn.com/t/font_1031158_u69w8yhxdu.woff?t=1630033759944") format("woff"), url("//at.alicdn.com/t/font_1031158_u69w8yhxdu.ttf?t=1630033759944") format("truetype"); }
</style></defs><path d="M518.87 352.05c21.94 0 53.56 3.87 54.21 28.4 0 7.74-1.29 19.36-2.58 28.4-6.45 41.3-25.17 142.62-36.14 223.93h-30.98c-9.03-74.86-27.75-177.47-35.49-222-1.94-7.74-4.52-22.59-4.52-30.33 0-22.59 32.26-28.4 55.5-28.4z m0.64 436.25c-30.33 0-52.27-21.94-52.27-54.21 0-31.62 21.94-53.56 52.27-53.56 30.98 0 52.92 21.94 52.92 53.56 0 32.27-21.94 54.21-52.92 54.21z" fill="#ffffff" p-id="8922"></path><path d="M513.89 155.77l396.96 687.55H116.93l396.96-687.55m0-30c-10.72 0-20.62 5.72-25.98 15L90.95 828.32a30.002 30.002 0 0 0 25.98 45h793.92a30.002 30.002 0 0 0 25.98-45L539.87 140.77c-5.36-9.28-15.26-15-25.98-15z" fill="#ffffff" p-id="8923"></path></svg>