<svg t="1680363849661" class="icon" viewBox="0 0 1024 1024" version="1.1" xmlns="http://www.w3.org/2000/svg" p-id="6697" xmlns:xlink="http://www.w3.org/1999/xlink" width="200" height="200"><path d="M180.138667 843.861333A466.389333 466.389333 0 0 1 42.666667 512a466.389333 466.389333 0 0 1 137.472-331.904A466.389333 466.389333 0 0 1 512 42.666667a466.346667 466.346667 0 0 1 331.904 137.429333A466.389333 466.389333 0 0 1 981.333333 512a466.346667 466.346667 0 0 1-137.429333 331.861333A466.389333 466.389333 0 0 1 512 981.333333a466.389333 466.389333 0 0 1-331.861333-137.472zM128 512a384.426667 384.426667 0 0 0 384 384 384.426667 384.426667 0 0 0 384-384 384.682667 384.682667 0 0 0-256-362.069333V640a170.666667 170.666667 0 0 1-170.666667 170.666667 170.666667 170.666667 0 0 1-170.666666-170.666667 170.666667 170.666667 0 0 1 170.666666-170.666667 169.685333 169.685333 0 0 1 85.333334 22.869334V130.346667A386.133333 386.133333 0 0 0 512 128a384.426667 384.426667 0 0 0-384 384z m256 128a85.333333 85.333333 0 0 0 85.333333 85.333333 85.333333 85.333333 0 0 0 85.333334-85.333333 85.333333 85.333333 0 0 0-85.333334-85.333333 85.333333 85.333333 0 0 0-85.333333 85.333333z" p-id="6698"></path></svg>
