<?xml version="1.0" standalone="no"?><!DOCTYPE svg PUBLIC "-//W3C//DTD SVG 1.1//EN" "http://www.w3.org/Graphics/SVG/1.1/DTD/svg11.dtd"><svg t="1680363792464" class="icon" viewBox="0 0 1024 1024" version="1.1" xmlns="http://www.w3.org/2000/svg" p-id="6558" xmlns:xlink="http://www.w3.org/1999/xlink" width="200" height="200"><path d="M844.8 840.533333c179.2-187.733333 170.666667-486.4-17.066667-665.6-179.2-170.666667-465.066667-170.666667-644.266666 0l-4.266667 4.266667-4.266667 4.266667C0 371.2 8.533333 669.866667 196.266667 844.8c179.2 170.666667 465.066667 170.666667 644.266666 0 0 0 4.266667 0 4.266667-4.266667zM896 512c0 85.333333-29.866667 170.666667-85.333333 238.933333L273.066667 213.333333c166.4-132.266667 405.333333-106.666667 537.6 59.733334C866.133333 341.333333 896 426.666667 896 512zM128 512c0-85.333333 29.866667-170.666667 85.333333-238.933333L750.933333 810.666667c-166.4 132.266667-405.333333 106.666667-537.6-59.733334C157.866667 682.666667 128 597.333333 128 512z" p-id="6559"></path></svg>